<svg xmlns="http://www.w3.org/2000/svg" width="203" height="80" viewBox="0 0 203 80">
  <g id="Merck_-_color" data-name="Merck - color" transform="translate(-0.021)">
    <g id="Rectangle_2466" data-name="Rectangle 2466" transform="translate(0.021)" fill="#fff" stroke="#707070" stroke-width="1" opacity="0">
      <rect width="203" height="80" stroke="none"/>
      <rect x="0.5" y="0.5" width="202" height="79" fill="none"/>
    </g>
    <g id="Group_7" data-name="Group 7" transform="translate(43.64 23.04)">
      <path id="path14179" d="M99.289,160.495h5.224v16.863h-3.871v-11.34l-4.953,11.339L90.476,166v11.353H86.864V160.493h5.163l3.723,8.727Z" transform="translate(-44.476 -152.064)" fill="#020a19"/>
      <path id="path14177" d="M96.061,160.495v16.863h9.729V174.5H99.833v-4.29h5.711V167.32H99.833v-3.868h5.957v-2.959Z" transform="translate(-34.098 -152.064)" fill="#020a19"/>
      <path id="path14175" d="M107.449,169.055c0,6.277,6.551,11.3,13.452,7.94v-3.612c-5.309,3.721-9.934-.009-9.858-4.183a5.572,5.572,0,0,1,5.523-5.621,5.185,5.185,0,0,1,4.335,1.639v-3.757c-4.987-2.956-13.452.3-13.452,7.588" transform="translate(-21.248 -152.191)" fill="#020a19"/>
      <path id="path14173" d="M114.517,177.27H118.1v-16.7h-3.586Z" transform="translate(-13.272 -151.978)" fill="#020a19"/>
      <path id="path14171" d="M120.509,168.209l5.419-7.62H121.74l-5.369,7.606,6.233,9.056h4.113Z" transform="translate(-11.179 -151.958)" fill="#020a19"/>
      <path id="path14169" d="M101.418,160.491v16.863H105.2V168.3l6.256,9.056h4.035l-4.953-7.08a4.658,4.658,0,0,0,3.042-4.719,5.29,5.29,0,0,0-5.523-5.065ZM105.2,163.3h1.652c2.793,0,2.942,1.826,2.942,2.508a2.476,2.476,0,0,1-2.532,2.412H105.2Z" transform="translate(-28.053 -152.065)" fill="#020a19"/>
      <path id="path13366" d="M75.379,164.965a8.431,8.431,0,0,1,16.863,0Zm0,16.863a8.431,8.431,0,0,1,8.431-8.431,8.431,8.431,0,0,1-8.431-8.431,8.431,8.431,0,1,0,0,16.863m0,0a8.431,8.431,0,0,0,16.863,0Zm8.431-8.431a8.431,8.431,0,0,1,8.431,8.431,8.431,8.431,0,0,0,0-16.863,8.431,8.431,0,0,1-8.431,8.431" transform="translate(-66.948 -156.534)" fill="#020a19"/>
    </g>
  </g>
</svg>
