<svg xmlns="http://www.w3.org/2000/svg" width="203" height="80" viewBox="0 0 203 80">
  <g id="Wolt_-_color" data-name="Wolt - color" transform="translate(-0.187)">
    <g id="Rectangle_9" data-name="Rectangle 9" transform="translate(0.187)" fill="#fff" stroke="#707070" stroke-width="1" opacity="0">
      <rect width="203" height="80" stroke="none"/>
      <rect x="0.5" y="0.5" width="202" height="79" fill="none"/>
    </g>
    <g id="wolt_color" transform="translate(59.224 24.149)">
      <g id="Group_4" data-name="Group 4" transform="translate(0 0)">
        <path id="Path_49" data-name="Path 49" d="M171.2,217c-.959,0-1.85.034-2.264.069-.859.069-1.13.891-1.093,1.678.788,11.546-1.85,24.942-4.762,24.9-2.159-.034-2.707-6.3-2.638-11.888.034-3.289.24-6.475.343-9.285.034-1.028-.343-1.233-1.093-1.336a8.485,8.485,0,0,0-3.084.069c-.859.171-1.062.891-1.987,3.049-4.625,10.724-9.079,19.361-9.079,19.361-1.063-8.666.479-17.062,1.782-23.194.171-.859-.205-1.336-.925-1.336-1.3,0-3.323.034-4.216.617a3.135,3.135,0,0,0-1.439,2.364c-1.473,7.026-2.467,15.828-1.093,22.646.308,1.473.617,1.816,1.233,2.227a14.52,14.52,0,0,0,4.316.753,3.3,3.3,0,0,0,3.147-1.814c1.919-3.22,3.46-6.475,6.407-12.71.24,8.154,1.337,14.561,7.057,14.629,7.606.069,12.642-18.844,12.745-27.991.069-2.364-1.13-2.775-3.357-2.81" transform="translate(-139 -217)" fill="#020a19"/>
        <path id="Path_50" data-name="Path 50" d="M248.9,245.6c-1.678,0-2.81-1.473-2.775-4.351.034-5.516,2.056-11.443,5.584-11.409a3.284,3.284,0,0,1,1.062.171c-.069.205-.1.377-.137.479-.546,3.118.069,5.139,1.576,6.235-.788,4.865-2.981,8.873-5.309,8.873m40.6-17.336s-2.569-.171-5.516-.308c0,0,.617-3.289.925-4.591a1.255,1.255,0,0,0-1.028-1.508,14.044,14.044,0,0,0-3.323-.171,1.287,1.287,0,0,0-1.165.925c-.312,1.371-.651,3.015-1.028,5.139-1.093-.034-2.159-.069-2.912-.034a1.074,1.074,0,0,0-1.165.925,12.017,12.017,0,0,0-.308,2.227c-.034.651.651.959,1.37.925,0,0,.891-.034,2.264-.1-.274,1.2-.788,4.419-1.028,6.407-1.268,4.145-3.871,7.195-6.1,7.195-1.371,0-2.159-.822-2.124-3.255a50.433,50.433,0,0,1,2.021-11.923,31.437,31.437,0,0,0,2.6-10.038c0-.72-.205-1.542-1.063-1.713a8.638,8.638,0,0,0-4.111.034c-.925.274-1.13,1.268-1.268,1.782-.546,2.536-1.473,6.99-2.159,10.93a8.21,8.21,0,0,1-4.694,3.084c-.205-5.208-3.22-7.469-7.4-7.5-7.332-.069-12.06,6.407-12.094,13.74-.069,5.927,3.152,8.431,7.88,8.463,5.55.034,9.73-3.871,11.34-11.1a8.743,8.743,0,0,0,4.145-2.124,50.228,50.228,0,0,0-.959,7.126c-.034,4.009,1.645,6.235,5.687,6.27,3.323.034,6.235-2.3,8.051-5.1.446,3.7,2.364,5.208,5.516,5.208,2.878.034,5.687-1.782,7.674-5.071.411-.651.685-1.233.445-1.508-.582-.651-1.644-1.027-1.952-.479-1.336,2.364-2.707,3.323-4.249,3.289-1.2,0-2.159-.72-2.159-2.81.034-3.015,1.782-11.1,1.782-11.1,1.473-.034,3.152-.069,4.694-.1,1.371-.034,2.364-.446,2.6-1.747.137-.822-.312-1.337-1.2-1.37" transform="translate(-205.527 -217.744)" fill="#020a19"/>
      </g>
    </g>
  </g>
</svg>
