<svg xmlns="http://www.w3.org/2000/svg" width="203" height="80" viewBox="0 0 203 80">
  <g id="Gorillas" transform="translate(-0.166)">
    <g id="Rectangle_8" data-name="Rectangle 8" transform="translate(0.166)" fill="#fff" stroke="#707070" stroke-width="1" opacity="0">
      <rect width="203" height="80" stroke="none"/>
      <rect x="0.5" y="0.5" width="202" height="79" fill="none"/>
    </g>
    <path id="Path_27" data-name="Path 27" d="M94.666,0H14.046A8.71,8.71,0,0,0,5.363,6.626L0,31.417H80.645a8.709,8.709,0,0,0,8.684-6.627Z" transform="translate(54.648 24.202)" fill="#020a19"/>
    <g id="Group_3" data-name="Group 3" transform="translate(65.852 29.925)">
      <path id="Path_28" data-name="Path 28" d="M1024.126,265a5.621,5.621,0,0,0-5.521,4.565l-2.3,10.8c-.573,2.686.828,4.565,3.574,4.565a5.6,5.6,0,0,0,5.521-4.565l2.305-10.8C1028.264,266.906,1026.866,265,1024.126,265Zm.606,4.334-2.4,11.265a1.836,1.836,0,0,1-1.821,1.561c-.944,0-1.351-.635-1.153-1.561l2.4-11.265a1.834,1.834,0,0,1,1.821-1.561c.938,0,1.351.636,1.148,1.561Z" transform="translate(-1005.629 -264.996)" fill="#fff"/>
      <path id="Path_29" data-name="Path 29" d="M529.406,274.868l-.493,2.311H530.4l-.734,3.435a1.86,1.86,0,0,1-1.874,1.53,1.152,1.152,0,0,1-1.218-1.53l2.465-11.44a1.845,1.845,0,0,1,1.836-1.5,1.105,1.105,0,0,1,1.2,1.474l-.586,2.743h2.859l.547-2.57c.525-2.455-.629-4.42-3.435-4.42a5.66,5.66,0,0,0-5.519,4.42l-2.383,11.1c-.554,2.6.629,4.42,3.145,4.42a3.885,3.885,0,0,0,3.269-1.647l-.265,1.3h2.076l2.052-9.62Z" transform="translate(-523.428 -264.898)" fill="#fff"/>
      <path id="Path_30" data-name="Path 30" d="M2544.6,281l-6.231,16.466h-4.748L2537.132,281H2534.1l-4.1,19.239h10.094l1.374-3.754h2.773l-.312,3.754h3.088l.931-19.239Zm-.008,12.914h-2.059l2.792-7.857Z" transform="translate(-2487.064 -280.65)" fill="#fff"/>
      <path id="Path_31" data-name="Path 31" d="M2154.121,297.468,2157.634,281H2154.6l-4.106,19.241h7.409l.591-2.773Z" transform="translate(-2115.683 -280.65)" fill="#fff"/>
      <path id="Path_32" data-name="Path 32" d="M1947.006,281l-4.106,19.241h3.032L1950.039,281Z" transform="translate(-1912.527 -280.65)" fill="#fff"/>
      <path id="Path_33" data-name="Path 33" d="M1481.194,293.57a2.141,2.141,0,0,0-1.291-2.658,3.637,3.637,0,0,0,2.5-2.714l.728-3.409c.554-2.6-.824-3.785-2.94-3.785h-4.984l-4.106,19.239h3.032l1.732-8.119h1.487c.83,0,1.093.635.927,1.415l-.881,4.131c-.321,1.5-.114,2.583,1.059,2.583h1.3Zm-3.357-3.841h-1.459l1.3-6.095h1.693c.715,0,.937.432.764,1.243l-.746,3.5a1.533,1.533,0,0,1-1.553,1.355Z" transform="translate(-1450.823 -280.651)" fill="#fff"/>
      <path id="Path_34" data-name="Path 34" d="M3372.3,266.4a5.543,5.543,0,0,0-5.437,4.708c-.525,2.455.76,4.71,1.991,6.3,1.237,1.7,1.8,2.946,1.445,4.621a1.932,1.932,0,0,1-1.97,1.733c-1.057,0-1.453-.694-1.194-1.906l.351-1.647h-2.774l-.364,1.705c-.58,2.714.772,4.42,3.518,4.42a5.608,5.608,0,0,0,5.472-4.738c.519-2.427-.442-4.362-1.887-6.3-1.367-1.906-1.932-2.832-1.531-4.708a1.836,1.836,0,0,1,1.818-1.561c.972,0,1.306.722,1.077,1.8l-.37,1.733h2.746l.371-1.733C3376.116,268.2,3374.844,266.4,3372.3,266.4Z" transform="translate(-3303.424 -266.366)" fill="#fff"/>
    </g>
  </g>
</svg>
