<svg xmlns="http://www.w3.org/2000/svg" width="203" height="80" viewBox="0 0 203 80">
  <g id="Lowe_s_color" data-name="Lowe&apos;s color" transform="translate(-0.125)">
    <g id="Rectangle_6" data-name="Rectangle 6" transform="translate(0.125)" fill="#fff" stroke="#707070" stroke-width="1" opacity="0">
      <rect width="203" height="80" stroke="none"/>
      <rect x="0.5" y="0.5" width="202" height="79" fill="none"/>
    </g>
    <path id="Subtraction_1" data-name="Subtraction 1" d="M1512.383-2461.75H1436V-2484.7h6.151v-3.419h12.3l19.723-8.372,19.747,8.372h12.3v3.419h6.151v22.952Zm-17.375-4.907.07.02a18.18,18.18,0,0,0,4.86.842,4.478,4.478,0,0,0,2.818-.746,4.236,4.236,0,0,0,1.479-3.045,3.354,3.354,0,0,0-.329-1.651l-.024-.047a.127.127,0,0,1-.023-.034.123.123,0,0,0-.024-.035l-.023-.046c-.574-1.113-1.81-2.034-3.78-2.811l-.07-.023-.035-.015c-.428-.173-1.561-.634-1.7-1.358a.844.844,0,0,1,.282-.745,1.574,1.574,0,0,1,1.151-.4,6.082,6.082,0,0,1,2.207.535c1.009.418,1.9.791,1.9.791l.094.046v-2.811l-.024-.023a11,11,0,0,0-3.85-1.465c-.212-.022-.449-.022-.657-.022a4.508,4.508,0,0,0-3.992,1.906,3.96,3.96,0,0,0-.187,3.883,6.483,6.483,0,0,0,3.334,2.512l.166.073a11.977,11.977,0,0,1,1.385.694,1.236,1.236,0,0,1,.728,1.3,1.3,1.3,0,0,1-1.362.791,1.16,1.16,0,0,1-.282-.024h-.023a27.981,27.981,0,0,1-4.039-1.186l-.094-.023h0v3.094l.047.023Zm-11.67-12.6v12.881h8.312v-3h-4.813v-1.978h4.813v-2.906h-4.813v-1.977h4.813v-3.023Zm-38.625-2.767v15.651h8.876v-3h-5.4v-12.652Zm29.466,14.533h0a1.283,1.283,0,0,0,1.337,1.118h4.156a1.661,1.661,0,0,0,1.667-1.65v-11.233h-3.5v9.861h-2.113v-9.861h-3.076v9.861h-2.113v-9.861h-3.5v11.233a1.661,1.661,0,0,0,1.667,1.65h4.133a1.266,1.266,0,0,0,1.333-1.118Zm-17.516-11.766a1.661,1.661,0,0,0-1.667,1.652v9.582a1.661,1.661,0,0,0,1.667,1.65h6.74a1.661,1.661,0,0,0,1.667-1.65v-9.578a1.661,1.661,0,0,0-1.667-1.652Zm48.909-.07a1.054,1.054,0,0,0-.76.3,1.053,1.053,0,0,0-.32.75,1.052,1.052,0,0,0,.32.75,1.051,1.051,0,0,0,.76.3,1.053,1.053,0,0,0,.76-.3,1.053,1.053,0,0,0,.32-.75,1.053,1.053,0,0,0-.319-.75,1.053,1.053,0,0,0-.759-.3Zm-13.173-2.7v3.721h2.443l.493-3.721Zm-30.829,12.628H1458.5v-6.838h3.076v6.837Zm44-8.024a.859.859,0,0,1-.626-.255.859.859,0,0,1-.248-.629.859.859,0,0,1,.246-.626.859.859,0,0,1,.622-.256.865.865,0,0,1,.62.259.866.866,0,0,1,.249.624.859.859,0,0,1-.245.624.858.858,0,0,1-.618.258Zm-.422-1.465v1.21h.188v-.535h.211l.329.536h.212l-.352-.536a.312.312,0,0,0,.221-.1.311.311,0,0,0,.084-.227c0-.234-.142-.348-.423-.348Zm.423.536h0v-.023h-.212v-.371h.258c.125,0,.258.049.258.185,0,.191-.157.207-.305.207Z" transform="translate(-1372.781 2517.192)" fill="#020a19"/>
  </g>
</svg>
