<svg xmlns="http://www.w3.org/2000/svg" width="203" height="80" viewBox="0 0 203 80">
  <g id="Polaris_color" data-name="Polaris color" transform="translate(-0.145)">
    <g id="Rectangle_7" data-name="Rectangle 7" transform="translate(0.145)" fill="#fff" stroke="#707070" stroke-width="1" opacity="0">
      <rect width="203" height="80" stroke="none"/>
      <rect x="0.5" y="0.5" width="202" height="79" fill="none"/>
    </g>
    <g id="Polaris_Industries_logo_color" transform="translate(38.254 32.008)">
      <path id="Path_37" data-name="Path 37" d="M656.937,368.2H641.7v15.657h4.88v-4.148h10.343a3.908,3.908,0,0,0,3.9-3.918v-3.674a3.888,3.888,0,0,0-3.89-3.918Zm-.976,6.452a1.177,1.177,0,0,1-1.166,1.18h-8.2v-3.8h8.2a1.171,1.171,0,0,1,1.166,1.18Z" transform="translate(-641.7 -368.173)" fill="#020a19"/>
      <path id="Path_38" data-name="Path 38" d="M805.867,368.2h-5.476a4.684,4.684,0,0,0-4.676,4.69v2.982l7.495-1.288-1.668-3.1,3.091,1.911Zm-1.249,10.425-3.089,1.91,1.668-3.091L795.7,376.17v2.982a4.689,4.689,0,0,0,4.676,4.69h5.476Zm7.1-10.425h-5.477l1.249,5.206,3.091-1.911-1.694,3.091,7.51,1.288v-2.982a4.684,4.684,0,0,0-4.678-4.691Zm-2.833,9.245,1.682,3.09-3.091-1.911-1.249,5.231h5.477a4.692,4.692,0,0,0,4.69-4.69v-2.993Z" transform="translate(-774.825 -368.173)" fill="#020a19"/>
      <path id="Path_39" data-name="Path 39" d="M975.751,379.939h-8.041a1.561,1.561,0,0,1-1.561-1.561V368.2H961.3v13.312a2.337,2.337,0,0,0,2.342,2.342h12.109Z" transform="translate(-917.976 -368.173)" fill="#020a19"/>
      <path id="Path_40" data-name="Path 40" d="M1092.551,368.2h-9.759a4.692,4.692,0,0,0-4.69,4.69v10.953h4.853v-4.138h9.368v4.148l4.918-.027v-10.95a4.689,4.689,0,0,0-4.69-4.676Zm-.244,7.632h-9.38v-1.9a1.886,1.886,0,0,1,1.9-1.9h5.585a1.895,1.895,0,0,1,1.9,1.9Z" transform="translate(-1018.944 -368.173)" fill="#020a19"/>
      <path id="Path_41" data-name="Path 41" d="M1251.427,375.406v-3.389a3.908,3.908,0,0,0-3.9-3.918H1232.3v15.657h4.853v-4.121h8.242a1.171,1.171,0,0,1,1.166,1.18v2.955h4.88v-3.647a2.342,2.342,0,0,0-2.342-2.342h0a2.376,2.376,0,0,0,2.329-2.374Zm-6.886.379h-7.4v-3.877h7.4a1.938,1.938,0,1,1,0,3.877Z" transform="translate(-1152.241 -368.087)" fill="#020a19"/>
      <rect id="Rectangle_4" data-name="Rectangle 4" width="4.88" height="15.657" transform="translate(100.935 0.041)" fill="#020a19"/>
      <path id="Path_42" data-name="Path 42" d="M1447.538,377.624h.6a1.078,1.078,0,0,1,0,2.155H1435v3.9h15.223a3.908,3.908,0,0,0,3.9-3.918v-1.843a3.917,3.917,0,0,0-3.9-3.918h-4.106l-4.676-.013h-.475a1.078,1.078,0,1,1,0-2.155h12.3V368h-14.328a3.917,3.917,0,0,0-3.9,3.917v1.789a3.908,3.908,0,0,0,3.9,3.918h8.608Z" transform="translate(-1327.464 -368)" fill="#020a19"/>
    </g>
  </g>
</svg>
